<svg width="68" height="68" viewBox="0 0 68 68" fill="none" xmlns="http://www.w3.org/2000/svg">
<g filter="url(#filter0_d_2_7)">
<circle cx="34" cy="30" r="30" fill="#F93B12"/>
<circle cx="34" cy="30" r="28.5" stroke="white" stroke-width="3"/>
</g>
<path d="M21.92 41.224C20.3627 41.224 18.9547 40.9573 17.696 40.424C16.4587 39.8907 15.4773 39.1227 14.752 38.12C14.0267 37.1173 13.6533 35.9333 13.632 34.568H18.432C18.496 35.4853 18.816 36.2107 19.392 36.744C19.9893 37.2773 20.8 37.544 21.824 37.544C22.8693 37.544 23.6907 37.2987 24.288 36.808C24.8853 36.296 25.184 35.6347 25.184 34.824C25.184 34.1627 24.9813 33.6187 24.576 33.192C24.1707 32.7653 23.6587 32.4347 23.04 32.2C22.4427 31.944 21.6107 31.6667 20.544 31.368C19.0933 30.9413 17.9093 30.5253 16.992 30.12C16.096 29.6933 15.3173 29.064 14.656 28.232C14.016 27.3787 13.696 26.248 13.696 24.84C13.696 23.5173 14.0267 22.3653 14.688 21.384C15.3493 20.4027 16.2773 19.656 17.472 19.144C18.6667 18.6107 20.032 18.344 21.568 18.344C23.872 18.344 25.7387 18.9093 27.168 20.04C28.6187 21.1493 29.4187 22.7067 29.568 24.712H24.64C24.5973 23.944 24.2667 23.3147 23.648 22.824C23.0507 22.312 22.2507 22.056 21.248 22.056C20.3733 22.056 19.6693 22.28 19.136 22.728C18.624 23.176 18.368 23.8267 18.368 24.68C18.368 25.2773 18.56 25.7787 18.944 26.184C19.3493 26.568 19.84 26.888 20.416 27.144C21.0133 27.3787 21.8453 27.656 22.912 27.976C24.3627 28.4027 25.5467 28.8293 26.464 29.256C27.3813 29.6827 28.1707 30.3227 28.832 31.176C29.4933 32.0293 29.824 33.1493 29.824 34.536C29.824 35.7307 29.5147 36.84 28.896 37.864C28.2773 38.888 27.3707 39.7093 26.176 40.328C24.9813 40.9253 23.5627 41.224 21.92 41.224ZM49.26 25.384C48.748 24.4453 48.044 23.7307 47.148 23.24C46.252 22.7493 45.2067 22.504 44.012 22.504C42.6893 22.504 41.516 22.8027 40.492 23.4C39.468 23.9973 38.668 24.8507 38.092 25.96C37.516 27.0693 37.228 28.3493 37.228 29.8C37.228 31.2933 37.516 32.5947 38.092 33.704C38.6893 34.8133 39.5107 35.6667 40.556 36.264C41.6013 36.8613 42.8173 37.16 44.204 37.16C45.9107 37.16 47.308 36.712 48.396 35.816C49.484 34.8987 50.1987 33.6293 50.54 32.008H42.86V28.584H54.956V32.488C54.6573 34.0453 54.0173 35.4853 53.036 36.808C52.0547 38.1307 50.7853 39.1973 49.228 40.008C47.692 40.7973 45.964 41.192 44.044 41.192C41.8893 41.192 39.9373 40.712 38.188 39.752C36.46 38.7707 35.0947 37.416 34.092 35.688C33.1107 33.96 32.62 31.9973 32.62 29.8C32.62 27.6027 33.1107 25.64 34.092 23.912C35.0947 22.1627 36.46 20.808 38.188 19.848C39.9373 18.8667 41.8787 18.376 44.012 18.376C46.5293 18.376 48.716 18.9947 50.572 20.232C52.428 21.448 53.708 23.1653 54.412 25.384H49.26Z" fill="white"/>
<defs>
<filter id="filter0_d_2_7" x="0" y="0" width="68" height="68" filterUnits="userSpaceOnUse" color-interpolation-filters="sRGB">
<feFlood flood-opacity="0" result="BackgroundImageFix"/>
<feColorMatrix in="SourceAlpha" type="matrix" values="0 0 0 0 0 0 0 0 0 0 0 0 0 0 0 0 0 0 127 0" result="hardAlpha"/>
<feOffset dy="4"/>
<feGaussianBlur stdDeviation="2"/>
<feComposite in2="hardAlpha" operator="out"/>
<feColorMatrix type="matrix" values="0 0 0 0 0 0 0 0 0 0 0 0 0 0 0 0 0 0 0.25 0"/>
<feBlend mode="normal" in2="BackgroundImageFix" result="effect1_dropShadow_2_7"/>
<feBlend mode="normal" in="SourceGraphic" in2="effect1_dropShadow_2_7" result="shape"/>
</filter>
</defs>
</svg>
